<svg id="visual" viewBox="0 0 900 600" width="900" height="600" xmlns="http://www.w3.org/2000/svg" xmlns:xlink="http://www.w3.org/1999/xlink" version="1.1"><rect x="0" y="0" width="900" height="600" fill="#c1c1c1"></rect><path d="M0 496L64 482L129 501L193 471L257 501L321 481L386 493L450 488L514 493L579 483L643 504L707 470L771 488L836 459L900 495L900 601L836 601L771 601L707 601L643 601L579 601L514 601L450 601L386 601L321 601L257 601L193 601L129 601L64 601L0 601Z" fill="#192e59"></path><path d="M0 478L64 506L129 472L193 502L257 482L321 497L386 498L450 508L514 481L579 506L643 477L707 482L771 503L836 494L900 479L900 601L836 601L771 601L707 601L643 601L579 601L514 601L450 601L386 601L321 601L257 601L193 601L129 601L64 601L0 601Z" fill="#1c3560"></path><path d="M0 506L64 522L129 494L193 494L257 519L321 487L386 495L450 523L514 487L579 514L643 505L707 517L771 515L836 509L900 509L900 601L836 601L771 601L707 601L643 601L579 601L514 601L450 601L386 601L321 601L257 601L193 601L129 601L64 601L0 601Z" fill="#1f3b66"></path><path d="M0 506L64 535L129 529L193 510L257 510L321 523L386 510L450 520L514 533L579 531L643 528L707 508L771 512L836 511L900 523L900 601L836 601L771 601L707 601L643 601L579 601L514 601L450 601L386 601L321 601L257 601L193 601L129 601L64 601L0 601Z" fill="#22426d"></path><path d="M0 522L64 524L129 524L193 546L257 541L321 519L386 525L450 525L514 526L579 529L643 525L707 524L771 521L836 546L900 544L900 601L836 601L771 601L707 601L643 601L579 601L514 601L450 601L386 601L321 601L257 601L193 601L129 601L64 601L0 601Z" fill="#264973"></path><path d="M0 534L64 550L129 557L193 553L257 539L321 557L386 539L450 538L514 540L579 540L643 555L707 548L771 531L836 555L900 549L900 601L836 601L771 601L707 601L643 601L579 601L514 601L450 601L386 601L321 601L257 601L193 601L129 601L64 601L0 601Z" fill="#2a5079"></path><path d="M0 551L64 553L129 562L193 562L257 551L321 545L386 557L450 546L514 558L579 559L643 558L707 548L771 557L836 566L900 549L900 601L836 601L771 601L707 601L643 601L579 601L514 601L450 601L386 601L321 601L257 601L193 601L129 601L64 601L0 601Z" fill="#2e5780"></path><path d="M0 568L64 570L129 560L193 560L257 561L321 576L386 560L450 562L514 561L579 560L643 564L707 571L771 562L836 565L900 573L900 601L836 601L771 601L707 601L643 601L579 601L514 601L450 601L386 601L321 601L257 601L193 601L129 601L64 601L0 601Z" fill="#335f86"></path><path d="M0 578L64 582L129 579L193 581L257 588L321 586L386 588L450 576L514 576L579 579L643 583L707 585L771 580L836 579L900 577L900 601L836 601L771 601L707 601L643 601L579 601L514 601L450 601L386 601L321 601L257 601L193 601L129 601L64 601L0 601Z" fill="#38668c"></path></svg>